<mxfile host="Electron" agent="Mozilla/5.0 (Windows NT 10.0; Win64; x64) AppleWebKit/537.36 (KHTML, like Gecko) draw.io/24.7.17 Chrome/128.0.6613.36 Electron/32.0.1 Safari/537.36" version="24.7.17">
  <diagram name="第 1 页" id="C_7HmqHCMLIv1cbkNJNv">
    <mxGraphModel dx="633" dy="551" grid="1" gridSize="10" guides="1" tooltips="1" connect="1" arrows="1" fold="1" page="1" pageScale="1" pageWidth="827" pageHeight="1169" math="0" shadow="0">
      <root>
        <mxCell id="0" />
        <mxCell id="1" parent="0" />
        <mxCell id="0B_OYRFSz0F9TcwpIuTm-1" value="&lt;font style=&quot;font-size: 18px;&quot;&gt;Meet precision&lt;/font&gt;" style="rounded=0;whiteSpace=wrap;html=1;" vertex="1" parent="1">
          <mxGeometry x="250" y="170" width="160" height="60" as="geometry" />
        </mxCell>
        <mxCell id="0B_OYRFSz0F9TcwpIuTm-2" value="&lt;font style=&quot;font-size: 18px;&quot;&gt;Read Data&lt;/font&gt;" style="rounded=0;whiteSpace=wrap;html=1;" vertex="1" parent="1">
          <mxGeometry x="90" y="330" width="130" height="60" as="geometry" />
        </mxCell>
        <mxCell id="0B_OYRFSz0F9TcwpIuTm-3" value="" style="endArrow=classic;html=1;rounded=0;exitX=0.5;exitY=0;exitDx=0;exitDy=0;entryX=0;entryY=1;entryDx=0;entryDy=0;" edge="1" parent="1" source="0B_OYRFSz0F9TcwpIuTm-2" target="0B_OYRFSz0F9TcwpIuTm-1">
          <mxGeometry width="50" height="50" relative="1" as="geometry">
            <mxPoint x="150" y="320" as="sourcePoint" />
            <mxPoint x="270" y="233" as="targetPoint" />
          </mxGeometry>
        </mxCell>
        <mxCell id="0B_OYRFSz0F9TcwpIuTm-4" value="&lt;font style=&quot;font-size: 18px;&quot;&gt;Iterate&lt;/font&gt;" style="rounded=0;whiteSpace=wrap;html=1;direction=east;" vertex="1" parent="1">
          <mxGeometry x="270" y="330" width="120" height="60" as="geometry" />
        </mxCell>
        <mxCell id="0B_OYRFSz0F9TcwpIuTm-12" value="" style="ellipse;whiteSpace=wrap;html=1;aspect=fixed;direction=east;" vertex="1" parent="1">
          <mxGeometry x="170" y="280" width="10" height="10" as="geometry" />
        </mxCell>
        <mxCell id="0B_OYRFSz0F9TcwpIuTm-13" value="" style="endArrow=classic;html=1;rounded=0;exitX=1;exitY=0;exitDx=0;exitDy=0;" edge="1" parent="1" source="0B_OYRFSz0F9TcwpIuTm-12">
          <mxGeometry width="50" height="50" relative="1" as="geometry">
            <mxPoint x="180" y="280" as="sourcePoint" />
            <mxPoint x="190" y="270" as="targetPoint" />
          </mxGeometry>
        </mxCell>
        <mxCell id="0B_OYRFSz0F9TcwpIuTm-14" value="" style="endArrow=classic;html=1;rounded=0;entryX=0.5;entryY=0;entryDx=0;entryDy=0;exitX=0.5;exitY=1;exitDx=0;exitDy=0;" edge="1" parent="1" source="0B_OYRFSz0F9TcwpIuTm-1" target="0B_OYRFSz0F9TcwpIuTm-4">
          <mxGeometry width="50" height="50" relative="1" as="geometry">
            <mxPoint x="300" y="290" as="sourcePoint" />
            <mxPoint x="350" y="240" as="targetPoint" />
          </mxGeometry>
        </mxCell>
        <mxCell id="0B_OYRFSz0F9TcwpIuTm-17" style="edgeStyle=orthogonalEdgeStyle;rounded=0;orthogonalLoop=1;jettySize=auto;html=1;exitX=0.5;exitY=1;exitDx=0;exitDy=0;" edge="1" parent="1" source="0B_OYRFSz0F9TcwpIuTm-16">
          <mxGeometry relative="1" as="geometry">
            <mxPoint x="315" y="290" as="targetPoint" />
          </mxGeometry>
        </mxCell>
        <mxCell id="0B_OYRFSz0F9TcwpIuTm-16" value="" style="ellipse;whiteSpace=wrap;html=1;aspect=fixed;direction=east;" vertex="1" parent="1">
          <mxGeometry x="310" y="260" width="10" height="10" as="geometry" />
        </mxCell>
        <mxCell id="0B_OYRFSz0F9TcwpIuTm-18" value="N" style="text;html=1;align=center;verticalAlign=middle;whiteSpace=wrap;rounded=0;" vertex="1" parent="1">
          <mxGeometry x="270" y="250" width="60" height="30" as="geometry" />
        </mxCell>
        <mxCell id="0B_OYRFSz0F9TcwpIuTm-19" value="Yes/No" style="text;html=1;align=center;verticalAlign=middle;whiteSpace=wrap;rounded=0;" vertex="1" parent="1">
          <mxGeometry x="340" y="260" width="60" height="30" as="geometry" />
        </mxCell>
        <mxCell id="0B_OYRFSz0F9TcwpIuTm-21" style="edgeStyle=orthogonalEdgeStyle;rounded=0;orthogonalLoop=1;jettySize=auto;html=1;exitX=0.5;exitY=0;exitDx=0;exitDy=0;" edge="1" parent="1" source="0B_OYRFSz0F9TcwpIuTm-20">
          <mxGeometry relative="1" as="geometry">
            <mxPoint x="345.1111111111111" y="260" as="targetPoint" />
          </mxGeometry>
        </mxCell>
        <mxCell id="0B_OYRFSz0F9TcwpIuTm-20" value="" style="ellipse;whiteSpace=wrap;html=1;aspect=fixed;direction=east;" vertex="1" parent="1">
          <mxGeometry x="340" y="280" width="10" height="10" as="geometry" />
        </mxCell>
        <mxCell id="0B_OYRFSz0F9TcwpIuTm-22" value="&lt;span style=&quot;font-size: 18px;&quot;&gt;Visulize Result&lt;/span&gt;" style="rounded=0;whiteSpace=wrap;html=1;" vertex="1" parent="1">
          <mxGeometry x="440" y="330" width="160" height="60" as="geometry" />
        </mxCell>
        <mxCell id="0B_OYRFSz0F9TcwpIuTm-24" value="" style="endArrow=classic;html=1;rounded=0;entryX=0.5;entryY=0;entryDx=0;entryDy=0;exitX=1;exitY=1;exitDx=0;exitDy=0;" edge="1" parent="1" source="0B_OYRFSz0F9TcwpIuTm-1" target="0B_OYRFSz0F9TcwpIuTm-22">
          <mxGeometry width="50" height="50" relative="1" as="geometry">
            <mxPoint x="430" y="270" as="sourcePoint" />
            <mxPoint x="480" y="220" as="targetPoint" />
          </mxGeometry>
        </mxCell>
        <mxCell id="0B_OYRFSz0F9TcwpIuTm-25" value="(a)" style="text;html=1;align=center;verticalAlign=middle;whiteSpace=wrap;rounded=0;" vertex="1" parent="1">
          <mxGeometry x="300" y="410" width="60" height="30" as="geometry" />
        </mxCell>
        <mxCell id="0B_OYRFSz0F9TcwpIuTm-32" value="" style="ellipse;whiteSpace=wrap;html=1;aspect=fixed;direction=east;" vertex="1" parent="1">
          <mxGeometry x="460" y="250" width="10" height="10" as="geometry" />
        </mxCell>
        <mxCell id="0B_OYRFSz0F9TcwpIuTm-34" value="" style="endArrow=classic;html=1;rounded=0;exitX=1;exitY=1;exitDx=0;exitDy=0;" edge="1" parent="1" source="0B_OYRFSz0F9TcwpIuTm-32">
          <mxGeometry width="50" height="50" relative="1" as="geometry">
            <mxPoint x="450" y="280" as="sourcePoint" />
            <mxPoint x="480" y="270" as="targetPoint" />
          </mxGeometry>
        </mxCell>
        <mxCell id="0B_OYRFSz0F9TcwpIuTm-35" value="N" style="text;html=1;align=center;verticalAlign=middle;whiteSpace=wrap;rounded=0;" vertex="1" parent="1">
          <mxGeometry x="140" y="250" width="60" height="30" as="geometry" />
        </mxCell>
        <mxCell id="0B_OYRFSz0F9TcwpIuTm-38" value="N" style="text;html=1;align=center;verticalAlign=middle;whiteSpace=wrap;rounded=0;" vertex="1" parent="1">
          <mxGeometry x="450" y="230" width="60" height="30" as="geometry" />
        </mxCell>
      </root>
    </mxGraphModel>
  </diagram>
</mxfile>
